<svg width="57" height="40" viewBox="0 0 57 40" fill="none" xmlns="http://www.w3.org/2000/svg">
<g clip-path="url(#clip0_195_613)">
<rect width="56.7832" height="40" fill="#F7F7F6"/>
<g style="mix-blend-mode:overlay">
<path d="M19.6643 39.9492C19.8247 39.9529 19.9869 39.9548 20.151 39.9548V39.9492H19.6643Z" fill="#B35DFC"/>
</g>
<path d="M20.151 0.0332031C9.12445 0.0332031 0.190186 8.96747 0.190186 19.994C0.190186 25.4598 2.38879 30.4108 5.94683 34.0192L20.151 19.815V0.0332031Z" fill="#B35DFC"/>
<g style="mix-blend-mode:overlay">
<path d="M20.151 39.9548H56.7272L20.6265 39.9492C20.4662 39.9529 20.3076 39.9548 20.151 39.9548Z" fill="#FFB540"/>
</g>
<path d="M20.151 0.0332031C31.1776 0.0332031 40.1118 8.96747 40.1118 19.994C40.1118 21.0514 40.0279 22.0863 39.8713 23.0989L56.7272 39.9549V0.0332031H20.151Z" fill="#FFB540"/>
<g style="mix-blend-mode:overlay">
<path d="M20.151 39.9492V39.9548C20.3076 39.9548 20.4662 39.9529 20.6265 39.9492H20.151Z" fill="#B35DFC"/>
</g>
<g style="mix-blend-mode:overlay">
<path d="M20.151 39.9492V39.9548C20.3076 39.9548 20.4662 39.9529 20.6265 39.9492H20.151Z" fill="#FFB540"/>
</g>
<path d="M28.3748 11.5968L39.8713 23.0989C40.0279 22.0863 40.1118 21.0514 40.1118 19.994C40.1118 8.96747 31.1776 0.0332031 20.151 0.0332031V19.815L28.3748 11.5968Z" fill="#B35DFC"/>
<path d="M28.3748 11.5968L39.8713 23.0989C40.0279 22.0863 40.1118 21.0514 40.1118 19.994C40.1118 8.96747 31.1776 0.0332031 20.151 0.0332031V19.815L28.3748 11.5968Z" fill="#9053B7"/>
<path d="M5.94681 34.0195L0.0223389 39.944L19.6643 39.9496C14.2993 39.8209 9.4601 37.5776 5.94681 34.0195Z" fill="#56FF95"/>
<path d="M20.1511 19.8154L5.9469 34.0196C9.46019 37.5777 14.2993 39.821 19.6644 39.9497H20.1511V19.8154Z" fill="#B35DFC"/>
<path d="M20.1511 19.8154L5.9469 34.0196C9.46019 37.5777 14.2993 39.821 19.6644 39.9497H20.1511V19.8154Z" fill="#FF50B4"/>
<path d="M20.6266 39.95L56.7273 39.9556L39.8713 23.0996C38.4056 32.4982 30.3776 39.7206 20.6266 39.95Z" fill="#FFB540"/>
<path d="M20.6266 39.95L56.7273 39.9556L39.8713 23.0996C38.4056 32.4982 30.3776 39.7206 20.6266 39.95Z" fill="#3CC970"/>
<path d="M20.151 19.8158V39.9501H20.6265C30.3776 39.7207 38.4055 32.4984 39.8713 23.0998L28.3748 11.5977L20.151 19.8158Z" fill="#B35DFC"/>
<path d="M20.151 19.8158V39.9501H20.6265C30.3776 39.7207 38.4055 32.4984 39.8713 23.0998L28.3748 11.5977L20.151 19.8158Z" fill="#FFB540"/>
<path d="M20.151 19.8158V39.9501H20.6265C30.3776 39.7207 38.4055 32.4984 39.8713 23.0998L28.3748 11.5977L20.151 19.8158Z" fill="white"/>
</g>
<defs>
<clipPath id="clip0_195_613">
<rect width="56.7832" height="40" fill="white"/>
</clipPath>
</defs>
</svg>
