<svg width="48" height="48" viewBox="0 0 48 48" fill="none" xmlns="http://www.w3.org/2000/svg">
<path d="M24.0078 0.00585938C13.9881 0.00585938 11.0577 0.0161959 10.488 0.0634486C8.43181 0.23437 7.1523 0.558125 5.75834 1.25215C4.68408 1.78559 3.83686 2.40393 3.00071 3.27072C1.47792 4.85147 0.555014 6.79621 0.220923 9.1079C0.0584916 10.2302 0.0112389 10.459 0.00164072 16.1914C-0.0020509 18.1022 0.00164072 20.6169 0.00164072 23.9899C0.00164072 34.0016 0.0127156 36.929 0.0607065 37.4975C0.226829 39.4984 0.540616 40.7572 1.20511 42.1342C2.47502 44.77 4.90041 46.7487 7.75772 47.487C8.74707 47.7418 9.83979 47.882 11.2426 47.9485C11.837 47.9743 17.8949 47.9928 23.9565 47.9928C30.0182 47.9928 36.0798 47.9854 36.6594 47.9559C38.2837 47.8794 39.2269 47.7528 40.2698 47.4833C41.6865 47.12 43.0069 46.4518 44.1387 45.5253C45.2705 44.5989 46.1864 43.4365 46.8224 42.1194C47.4739 40.7757 47.8044 39.4688 47.9539 37.5725C47.9863 37.159 48 30.5669 48 23.9836C48 17.3993 47.9852 10.8193 47.9528 10.4059C47.8014 8.47885 47.471 7.18309 46.7984 5.81351C46.2465 4.69236 45.6337 3.85511 44.744 2.99902C43.1566 1.48251 41.2148 0.559601 38.9005 0.22588C37.7794 0.0638177 37.5561 0.0158267 31.8193 0.00585938H24.0078Z" fill="url(#paint0_radial_218_1386)"/>
<path d="M24.0078 0.00585938C13.9881 0.00585938 11.0577 0.0161959 10.488 0.0634486C8.43181 0.23437 7.1523 0.558125 5.75834 1.25215C4.68408 1.78559 3.83686 2.40393 3.00071 3.27072C1.47792 4.85147 0.555014 6.79621 0.220923 9.1079C0.0584916 10.2302 0.0112389 10.459 0.00164072 16.1914C-0.0020509 18.1022 0.00164072 20.6169 0.00164072 23.9899C0.00164072 34.0016 0.0127156 36.929 0.0607065 37.4975C0.226829 39.4984 0.540616 40.7572 1.20511 42.1342C2.47502 44.77 4.90041 46.7487 7.75772 47.487C8.74707 47.7418 9.83979 47.882 11.2426 47.9485C11.837 47.9743 17.8949 47.9928 23.9565 47.9928C30.0182 47.9928 36.0798 47.9854 36.6594 47.9559C38.2837 47.8794 39.2269 47.7528 40.2698 47.4833C41.6865 47.12 43.0069 46.4518 44.1387 45.5253C45.2705 44.5989 46.1864 43.4365 46.8224 42.1194C47.4739 40.7757 47.8044 39.4688 47.9539 37.5725C47.9863 37.159 48 30.5669 48 23.9836C48 17.3993 47.9852 10.8193 47.9528 10.4059C47.8014 8.47885 47.471 7.18309 46.7984 5.81351C46.2465 4.69236 45.6337 3.85511 44.744 2.99902C43.1566 1.48251 41.2148 0.559601 38.9005 0.22588C37.7794 0.0638177 37.5561 0.0158267 31.8193 0.00585938H24.0078Z" fill="url(#paint1_radial_218_1386)"/>
<path d="M23.9967 6.28125C19.1843 6.28125 18.5804 6.30229 16.6903 6.38831C14.8039 6.47469 13.5162 6.77334 12.3896 7.21154C11.2241 7.66413 10.2355 8.26955 9.25058 9.25484C8.26492 10.2398 7.6595 11.2284 7.20543 12.3935C6.76613 13.5205 6.4671 14.8085 6.3822 16.6942C6.29803 18.5843 6.27588 19.1886 6.27588 24.001C6.27588 28.8134 6.29729 29.4155 6.38294 31.3056C6.46969 33.192 6.76834 34.4796 7.20617 35.6063C7.65913 36.7718 8.26455 37.7604 9.24984 38.7453C10.2344 39.731 11.223 40.3379 12.3877 40.7905C13.5151 41.2286 14.8031 41.5273 16.6892 41.6137C18.5793 41.6997 19.1829 41.7207 23.9949 41.7207C28.8076 41.7207 29.4097 41.6997 31.2999 41.6137C33.1863 41.5273 34.4754 41.2286 35.6028 40.7905C36.7679 40.3379 37.755 39.731 38.7396 38.7453C39.7252 37.7604 40.3306 36.7718 40.7847 35.6067C41.2203 34.4796 41.5193 33.1916 41.6079 31.306C41.6928 29.4159 41.715 28.8134 41.715 24.001C41.715 19.1886 41.6928 18.5847 41.6079 16.6946C41.5193 14.8081 41.2203 13.5205 40.7847 12.3938C40.3306 11.2284 39.7252 10.2398 38.7396 9.25484C37.7539 8.26918 36.7682 7.66376 35.6017 7.21154C34.4721 6.77334 33.1837 6.47469 31.2973 6.38831C29.4072 6.30229 28.8054 6.28125 23.9916 6.28125H23.9967ZM22.4071 9.4745C22.8789 9.47376 23.4053 9.4745 23.9967 9.4745C28.7279 9.4745 29.2887 9.49148 31.157 9.57638C32.8847 9.65538 33.8223 9.94407 34.4469 10.1866C35.2739 10.5078 35.8634 10.8917 36.4832 11.5119C37.1034 12.1321 37.4874 12.7227 37.8093 13.5497C38.0518 14.1736 38.3409 15.1112 38.4195 16.8389C38.5044 18.7069 38.5229 19.268 38.5229 23.9969C38.5229 28.7259 38.5044 29.287 38.4195 31.155C38.3405 32.8826 38.0518 33.8203 37.8093 34.4442C37.4881 35.2711 37.1034 35.8599 36.4832 36.4798C35.8631 37.0999 35.2742 37.4839 34.4469 37.805C33.8231 38.0487 32.8847 38.3366 31.157 38.4156C29.289 38.5005 28.7279 38.519 23.9967 38.519C19.2652 38.519 18.7044 38.5005 16.8365 38.4156C15.1088 38.3359 14.1711 38.0472 13.5461 37.8047C12.7192 37.4835 12.1286 37.0996 11.5084 36.4794C10.8882 35.8592 10.5043 35.27 10.1823 34.4427C9.93981 33.8188 9.65075 32.8812 9.57212 31.1535C9.48721 29.2855 9.47023 28.7244 9.47023 23.9925C9.47023 19.2606 9.48721 18.7024 9.57212 16.8345C9.65112 15.1068 9.93981 14.1691 10.1823 13.5445C10.5035 12.7176 10.8882 12.1269 11.5084 11.5067C12.1286 10.8865 12.7192 10.5026 13.5461 10.1807C14.1708 9.93705 15.1088 9.64911 16.8365 9.56974C18.4711 9.49591 19.1046 9.47376 22.4071 9.47007V9.4745ZM33.4554 12.4167C33.0348 12.4167 32.6237 12.5414 32.274 12.7751C31.9243 13.0088 31.6517 13.3409 31.4908 13.7295C31.3299 14.1181 31.2878 14.5457 31.3699 14.9582C31.452 15.3707 31.6546 15.7496 31.9521 16.0469C32.2495 16.3443 32.6285 16.5467 33.041 16.6287C33.4535 16.7106 33.8811 16.6684 34.2696 16.5074C34.6582 16.3463 34.9902 16.0737 35.2238 15.7239C35.4573 15.3741 35.5819 14.9629 35.5818 14.5423C35.5818 13.3684 34.6293 12.416 33.4554 12.416V12.4167ZM23.9967 14.9012C18.9713 14.9012 14.8969 18.9756 14.8969 24.001C14.8969 29.0264 18.9713 33.099 23.9967 33.099C29.0221 33.099 33.0955 29.0264 33.0955 24.001C33.0955 18.9756 29.0218 14.9012 23.9964 14.9012H23.9967ZM23.9967 18.0944C27.2586 18.0944 29.9033 20.7387 29.9033 24.001C29.9033 27.2629 27.2586 29.9076 23.9967 29.9076C20.7345 29.9076 18.0901 27.2629 18.0901 24.001C18.0901 20.7387 20.7345 18.0944 23.9967 18.0944Z" fill="white"/>
<defs>
<radialGradient id="paint0_radial_218_1386" cx="0" cy="0" r="1" gradientUnits="userSpaceOnUse" gradientTransform="translate(12.7501 51.6888) rotate(-90) scale(47.5586 44.2453)">
<stop stop-color="#FFDD55"/>
<stop offset="0.1" stop-color="#FFDD55"/>
<stop offset="0.5" stop-color="#FF543E"/>
<stop offset="1" stop-color="#C837AB"/>
</radialGradient>
<radialGradient id="paint1_radial_218_1386" cx="0" cy="0" r="1" gradientUnits="userSpaceOnUse" gradientTransform="translate(-8.04025 3.46276) rotate(78.6776) scale(21.2591 87.653)">
<stop stop-color="#3771C8"/>
<stop offset="0.128" stop-color="#3771C8"/>
<stop offset="1" stop-color="#6600FF" stop-opacity="0"/>
</radialGradient>
</defs>
</svg>
