<svg width="792" height="400" viewBox="0 0 792 400" fill="none" xmlns="http://www.w3.org/2000/svg">
<g style="mix-blend-mode:multiply">
<path d="M354.027 188.272C354.027 216.94 330.769 240.186 302.018 240.186C273.335 240.186 250.077 216.94 250.077 188.272C250.077 159.604 273.335 136.358 302.018 136.358C330.769 136.358 354.027 159.604 354.027 188.272Z" fill="#E1C4FE"/>
</g>
<path d="M239.499 150.184C240.267 151.042 240.29 151.878 239.566 152.691C239.25 153.098 238.843 153.301 238.346 153.301C237.849 153.301 237.397 153.098 236.99 152.691C231.927 147.631 226.299 143.836 220.105 141.306C213.912 138.73 207.538 137.443 200.984 137.443C193.931 137.443 187.331 138.775 181.184 141.441C174.99 144.107 169.611 147.744 165.045 152.353C160.525 156.961 156.953 162.36 154.331 168.55C151.71 174.695 150.399 181.269 150.399 188.272C150.399 195.049 151.687 201.488 154.264 207.587C156.795 213.687 160.321 219.063 164.842 223.717C169.408 228.371 174.764 232.076 180.912 234.832C187.06 237.543 193.751 238.898 200.984 238.898C207.538 238.898 213.89 237.746 220.038 235.442C226.186 233.092 231.791 229.387 236.854 224.327C237.306 223.875 237.758 223.649 238.21 223.649C238.662 223.649 239.069 223.83 239.431 224.191C239.747 224.508 239.905 224.937 239.905 225.479C239.905 226.021 239.747 226.451 239.431 226.767C234.051 232.143 228.039 236.119 221.394 238.695C214.794 241.225 207.99 242.49 200.984 242.49C195.921 242.49 191.084 241.835 186.473 240.525C181.862 239.214 177.567 237.407 173.589 235.103C169.566 232.753 165.927 229.93 162.672 226.631C159.372 223.333 156.569 219.673 154.264 215.652C151.913 211.631 150.105 207.316 148.839 202.708C147.528 198.099 146.895 193.287 146.94 188.272C146.895 183.483 147.505 178.829 148.771 174.311C149.992 169.793 151.71 165.523 153.925 161.502C156.185 157.481 158.92 153.776 162.129 150.387C165.384 146.998 169.023 144.084 173.047 141.644C177.07 139.205 181.432 137.307 186.134 135.952C190.835 134.551 195.808 133.851 201.051 133.851C208.058 133.851 214.884 135.251 221.529 138.052C228.175 140.809 234.164 144.852 239.499 150.184Z" fill="black"/>
<path fill-rule="evenodd" clip-rule="evenodd" d="M301.95 133.851C309.454 133.851 316.506 135.296 323.106 138.188C329.661 141.034 335.402 144.92 340.329 149.845C345.257 154.77 349.145 160.508 351.992 167.059C354.886 173.656 356.332 180.704 356.332 188.204C356.332 193.174 355.677 197.986 354.366 202.64C353.055 207.294 351.224 211.608 348.873 215.584C346.568 219.606 343.742 223.265 340.397 226.564C337.052 229.907 333.39 232.753 329.412 235.103C325.389 237.407 321.049 239.214 316.393 240.525C311.782 241.835 306.968 242.49 301.95 242.49C294.401 242.49 287.326 241.089 280.726 238.288C274.171 235.442 268.453 231.556 263.571 226.631C258.643 221.706 254.778 215.946 251.975 209.349C249.173 202.753 247.771 195.704 247.771 188.204C247.771 183.189 248.427 178.377 249.738 173.769C251.003 169.115 252.789 164.777 255.095 160.756C257.445 156.78 260.271 153.121 263.571 149.777C266.825 146.434 270.464 143.61 274.488 141.306C278.511 138.956 282.828 137.126 287.439 135.816C292.05 134.506 296.887 133.851 301.95 133.851ZM301.95 137.443C297.294 137.443 292.796 138.052 288.456 139.272C284.116 140.447 280.071 142.141 276.319 144.355C272.566 146.569 269.176 149.235 266.147 152.353C263.073 155.425 260.429 158.836 258.214 162.586C256.044 166.336 254.371 170.38 253.196 174.717C251.975 179.055 251.365 183.551 251.365 188.204C251.365 192.858 251.975 197.354 253.196 201.691C254.371 206.028 256.044 210.072 258.214 213.822C260.429 217.572 263.073 220.984 266.147 224.056C269.176 227.128 272.566 229.771 276.319 231.985C280.071 234.244 284.116 235.961 288.456 237.136C292.796 238.311 297.294 238.898 301.95 238.898C306.606 238.898 311.104 238.311 315.444 237.136C319.784 235.961 323.829 234.244 327.582 231.985C331.334 229.771 334.747 227.128 337.821 224.056C340.94 220.984 343.584 217.572 345.754 213.822C347.969 210.072 349.687 206.028 350.908 201.691C352.128 197.354 352.738 192.858 352.738 188.204C352.738 183.551 352.128 179.055 350.908 174.717C349.687 170.38 347.969 166.336 345.754 162.586C343.584 158.836 340.94 155.425 337.821 152.353C334.747 149.235 331.334 146.569 327.582 144.355C323.829 142.141 319.784 140.447 315.444 139.272C311.104 138.052 306.606 137.443 301.95 137.443Z" fill="black"/>
<path fill-rule="evenodd" clip-rule="evenodd" d="M419.529 143.475C425.949 143.701 431.984 144.898 437.634 147.067C443.285 149.281 448.212 152.308 452.416 156.148C456.575 159.943 459.875 164.484 462.316 169.77C464.712 175.057 465.91 180.885 465.91 187.256C465.91 193.672 464.712 199.523 462.316 204.809C459.875 210.095 456.575 214.681 452.416 218.567C448.212 222.407 443.285 225.434 437.634 227.648C431.984 229.817 425.949 231.014 419.529 231.24V239.576C419.529 240.073 419.349 240.502 418.987 240.864C418.625 241.225 418.196 241.406 417.699 241.406C417.247 241.406 416.84 241.225 416.478 240.864C416.116 240.502 415.936 240.073 415.936 239.576V231.24C409.426 231.105 403.323 229.907 397.627 227.648C391.931 225.434 386.981 222.407 382.777 218.567C378.528 214.771 375.183 210.208 372.742 204.877C370.301 199.59 369.08 193.717 369.08 187.256C369.08 180.885 370.301 175.057 372.742 169.77C375.183 164.439 378.528 159.853 382.777 156.013C386.981 152.217 391.931 149.213 397.627 146.999C403.323 144.785 409.426 143.61 415.936 143.475V136.901C415.936 136.313 416.116 135.884 416.478 135.613C416.84 135.297 417.247 135.139 417.699 135.139C418.196 135.139 418.625 135.297 418.987 135.613C419.349 135.884 419.529 136.313 419.529 136.901V143.475ZM372.674 187.256C372.674 193.22 373.804 198.619 376.064 203.453C378.37 208.333 381.466 212.535 385.354 216.059C389.287 219.583 393.875 222.362 399.119 224.395C404.363 226.428 409.968 227.513 415.936 227.648V147.067C409.968 147.202 404.363 148.264 399.119 150.252C393.875 152.285 389.287 155.064 385.354 158.588C381.466 162.112 378.37 166.291 376.064 171.126C373.804 176.006 372.674 181.382 372.674 187.256ZM462.316 187.256C462.316 181.427 461.209 176.096 458.994 171.261C456.734 166.382 453.682 162.203 449.84 158.724C445.952 155.199 441.409 152.421 436.21 150.388C430.966 148.354 425.406 147.247 419.529 147.067V227.648C425.406 227.422 430.966 226.315 436.21 224.327C441.409 222.294 445.952 219.516 449.84 215.991C453.682 212.467 456.734 208.265 458.994 203.386C461.209 198.551 462.316 193.175 462.316 187.256Z" fill="black"/>
<path fill-rule="evenodd" clip-rule="evenodd" d="M484.354 241.406C483.902 241.406 483.495 241.225 483.134 240.864C482.727 240.502 482.523 240.073 482.523 239.576V136.697C482.523 136.11 482.727 135.658 483.134 135.342C483.495 135.025 483.902 134.867 484.354 134.867C485.529 134.867 486.117 135.342 486.117 136.29V186.036H525.514C529.537 186.036 533.289 186.758 536.77 188.204C540.206 189.695 543.189 191.728 545.721 194.304C548.252 196.879 550.264 199.906 551.756 203.385C553.202 206.864 553.925 210.569 553.925 214.5C553.925 218.386 553.202 221.978 551.756 225.276C550.264 228.619 548.252 231.466 545.721 233.815C543.189 236.21 540.206 238.085 536.77 239.44C533.289 240.751 529.537 241.406 525.514 241.406H484.354ZM486.117 189.627V237.814H526.124C529.786 237.814 533.108 237.181 536.092 235.916C539.121 234.606 541.697 232.866 543.822 230.698C545.901 228.529 547.529 226.044 548.704 223.243C549.88 220.441 550.467 217.505 550.467 214.432C550.467 211.224 549.834 208.107 548.569 205.08C547.348 202.098 545.63 199.454 543.415 197.15C541.2 194.846 538.578 193.016 535.549 191.661C532.475 190.305 529.13 189.627 525.514 189.627H486.117Z" fill="black"/>
<path d="M647.84 141.713L572.776 240.661C572.64 240.841 572.414 241.045 572.098 241.271C571.962 241.361 571.827 241.406 571.691 241.406H571.42C570.923 241.406 570.493 241.248 570.132 240.932C569.77 240.57 569.589 240.141 569.589 239.644V136.63C569.589 136.178 569.747 135.771 570.064 135.41C570.335 135.003 570.787 134.8 571.42 134.8C571.962 134.8 572.392 135.003 572.708 135.41C573.025 135.771 573.183 136.178 573.183 136.63V234.29L648.111 135.613L648.45 135.274C648.766 134.958 649.173 134.8 649.671 134.8C649.806 134.8 649.897 134.822 649.942 134.868C649.987 134.868 650.055 134.868 650.145 134.868L650.484 135.071L650.959 135.41C651.275 135.816 651.434 136.223 651.434 136.63V239.644C651.434 240.096 651.253 240.502 650.891 240.864C650.529 241.225 650.123 241.406 649.671 241.406C649.173 241.406 648.744 241.225 648.382 240.864C648.021 240.502 647.84 240.096 647.84 239.644V141.713Z" fill="black"/>
<path d="M101.441 273.259C101.938 273.259 102.368 273.44 102.729 273.801C103.091 274.162 103.272 274.659 103.272 275.292C103.272 275.744 103.091 276.128 102.729 276.444C102.368 276.76 101.938 276.919 101.441 276.919H41.2952V379.255C41.2952 379.843 41.0918 380.294 40.6849 380.611C40.3233 380.927 39.9164 381.085 39.4644 381.085C38.9671 381.085 38.5377 380.927 38.176 380.611C37.8144 380.294 37.6335 379.843 37.6335 379.255V275.156C37.6335 274.614 37.8144 274.162 38.176 273.801C38.5377 273.44 38.9671 273.259 39.4644 273.259H101.441Z" fill="black"/>
<path d="M151.484 351.672L185.184 274.479C185.41 274.027 185.749 273.689 186.201 273.463C186.653 273.282 187.105 273.259 187.557 273.395C187.964 273.621 188.281 273.982 188.507 274.479C188.688 275.021 188.665 275.518 188.439 275.97L153.247 356.552L153.043 356.823L152.907 357.297C150.873 361.996 148.816 366.04 146.737 369.429C144.657 372.862 142.329 375.686 139.753 377.9C137.176 380.069 134.215 381.65 130.87 382.644C127.57 383.638 123.66 384.022 119.139 383.796C118.687 383.706 118.28 383.503 117.918 383.187C117.602 382.825 117.444 382.396 117.444 381.899C117.444 381.311 117.625 380.86 117.986 380.543C118.348 380.227 118.755 380.069 119.207 380.069C119.478 380.069 119.659 380.092 119.749 380.137C123.818 380.363 127.344 380.024 130.327 379.12C133.311 378.217 135.955 376.771 138.261 374.783C140.566 372.75 142.623 370.174 144.431 367.057C146.24 363.939 148.003 360.279 149.721 356.077L114.664 275.97C114.438 275.518 114.438 275.021 114.664 274.479C114.89 273.982 115.229 273.621 115.681 273.395C116.721 273.079 117.444 273.44 117.851 274.479L151.484 351.672Z" fill="black"/>
<path d="M307.578 377.426H318.156C318.653 377.562 319.06 377.788 319.377 378.104C319.693 378.42 319.874 378.804 319.919 379.256V396.809C319.919 397.396 319.738 397.871 319.377 398.232C319.015 398.594 318.586 398.774 318.088 398.774C317.501 398.774 317.026 398.594 316.664 398.232C316.303 397.871 316.122 397.396 316.122 396.809V381.086H205.73C205.007 381.086 204.464 380.747 204.103 380.069V380.001L203.899 379.73V275.225C203.899 274.773 204.103 274.367 204.51 274.005C204.871 273.644 205.278 273.463 205.73 273.463C206.273 273.463 206.702 273.644 207.019 274.005C207.38 274.367 207.561 274.773 207.561 275.225V377.426H253.874V275.225C253.874 274.773 254.032 274.367 254.349 274.005C254.71 273.644 255.14 273.463 255.637 273.463C256.225 273.463 256.677 273.644 256.993 274.005C257.31 274.367 257.468 274.773 257.468 275.225V377.426H303.916V275.293C303.916 274.796 304.052 274.367 304.323 274.005C304.64 273.644 305.047 273.463 305.544 273.463C306.132 273.463 306.629 273.644 307.036 274.005C307.397 274.367 307.578 274.773 307.578 275.225V377.426Z" fill="black"/>
<path d="M414.919 280.239L339.041 380.34C338.906 380.475 338.679 380.656 338.363 380.882C338.227 381.017 338.092 381.085 337.956 381.085H337.685C337.188 381.085 336.758 380.904 336.397 380.543C336.035 380.227 335.854 379.82 335.854 379.323V275.156C335.854 274.705 335.99 274.275 336.261 273.869C336.577 273.462 337.052 273.259 337.685 273.259C338.227 273.259 338.657 273.462 338.973 273.869C339.29 274.275 339.448 274.705 339.448 275.156V373.833L415.19 274.14L415.529 273.801C415.89 273.44 416.32 273.259 416.817 273.259C416.908 273.259 416.998 273.281 417.088 273.327C417.134 273.372 417.201 273.394 417.292 273.394L417.631 273.53L418.038 273.869C418.399 274.321 418.58 274.75 418.58 275.156V379.323C418.58 379.775 418.399 380.181 418.038 380.543C417.676 380.904 417.269 381.085 416.817 381.085C416.32 381.085 415.89 380.904 415.529 380.543C415.122 380.181 414.919 379.775 414.919 379.323V280.239Z" fill="black"/>
<path fill-rule="evenodd" clip-rule="evenodd" d="M609.352 272.378C616.901 272.378 624.021 273.824 630.711 276.715C637.357 279.607 643.165 283.538 648.138 288.508C653.111 293.478 657.044 299.284 659.937 305.925C662.83 312.567 664.276 319.683 664.276 327.274C664.276 332.334 663.621 337.191 662.31 341.845C660.999 346.544 659.146 350.926 656.75 354.993C654.399 359.014 651.551 362.719 648.206 366.107C644.815 369.451 641.109 372.297 637.085 374.647C633.017 377.041 628.632 378.894 623.93 380.204C619.274 381.514 614.415 382.17 609.352 382.17C601.712 382.17 594.547 380.746 587.857 377.9C581.211 375.008 575.425 371.077 570.498 366.107C565.525 361.138 561.637 355.309 558.835 348.622C555.987 341.98 554.563 334.864 554.563 327.274C554.563 322.213 555.218 317.334 556.529 312.635C557.795 307.936 559.603 303.576 561.954 299.555C564.35 295.534 567.198 291.829 570.498 288.44C573.798 285.051 577.482 282.182 581.55 279.833C585.619 277.483 589.981 275.654 594.637 274.343C599.339 273.033 604.243 272.378 609.352 272.378ZM609.352 275.97C604.605 275.97 600.039 276.58 595.654 277.8C591.315 279.02 587.246 280.737 583.449 282.95C579.652 285.21 576.193 287.898 573.074 291.015C570 294.133 567.356 297.589 565.141 301.385C562.926 305.18 561.208 309.269 559.987 313.651C558.767 317.989 558.157 322.53 558.157 327.274C558.157 331.973 558.767 336.513 559.987 340.896C561.208 345.279 562.926 349.368 565.141 353.163C567.356 356.958 570 360.415 573.074 363.532C576.193 366.65 579.652 369.315 583.449 371.529C587.246 373.788 591.315 375.528 595.654 376.748C600.039 377.968 604.605 378.578 609.352 378.578C614.053 378.578 618.596 377.968 622.981 376.748C627.366 375.528 631.457 373.788 635.254 371.529C639.052 369.315 642.51 366.65 645.629 363.532C648.748 360.415 651.415 356.958 653.631 353.163C655.846 349.368 657.563 345.279 658.784 340.896C660.004 336.513 660.637 331.973 660.683 327.274C660.637 322.53 660.004 317.989 658.784 313.651C657.563 309.269 655.846 305.18 653.631 301.385C651.415 297.589 648.748 294.133 645.629 291.015C642.51 287.898 639.052 285.21 635.254 282.95C631.457 280.737 627.366 279.02 622.981 277.8C618.596 276.58 614.053 275.97 609.352 275.97Z" fill="black"/>
<path d="M766.423 280.24L690.478 380.34C690.387 380.476 690.161 380.657 689.8 380.883C689.709 381.018 689.574 381.086 689.393 381.086H689.121C688.624 381.086 688.195 380.905 687.833 380.544C687.471 380.227 687.291 379.821 687.291 379.324V275.157C687.291 274.705 687.449 274.276 687.765 273.87C688.037 273.463 688.489 273.26 689.121 273.26C689.709 273.26 690.139 273.463 690.41 273.87C690.726 274.276 690.884 274.705 690.884 275.157V373.834L766.626 274.141L766.965 273.802C767.327 273.44 767.756 273.26 768.254 273.26C768.344 273.26 768.434 273.282 768.525 273.327C768.57 273.373 768.638 273.395 768.728 273.395L769.067 273.531L769.542 273.87C769.858 274.321 770.017 274.751 770.017 275.157V379.324C770.017 379.776 769.836 380.182 769.474 380.544C769.113 380.905 768.706 381.086 768.254 381.086C767.756 381.086 767.327 380.905 766.965 380.544C766.604 380.182 766.423 379.776 766.423 379.324V280.24ZM717.058 263.568C716.787 263.839 716.471 263.975 716.109 263.975C715.657 263.975 715.295 263.839 715.024 263.568C714.798 263.297 714.64 262.958 714.55 262.552V262.348C714.55 260.18 715.002 258.124 715.906 256.181C716.765 254.238 717.917 252.566 719.364 251.166C720.765 249.765 722.438 248.658 724.382 247.845C726.28 247.032 728.292 246.625 730.417 246.625C732.632 246.625 734.689 247.032 736.587 247.845C738.486 248.658 740.158 249.788 741.605 251.234C743.006 252.634 744.114 254.306 744.928 256.249C745.741 258.192 746.148 260.292 746.148 262.552C746.148 262.958 746.035 263.297 745.809 263.568C745.538 263.839 745.176 263.975 744.724 263.975C744.363 263.975 744.046 263.839 743.775 263.568C743.504 263.297 743.345 262.958 743.3 262.552V262.28C743.3 260.564 742.961 258.914 742.283 257.333C741.605 255.797 740.701 254.441 739.571 253.267C738.395 252.092 737.039 251.166 735.502 250.488C733.92 249.81 732.225 249.471 730.417 249.471C728.563 249.471 726.868 249.81 725.331 250.488C723.794 251.166 722.438 252.092 721.263 253.267C720.132 254.396 719.228 255.729 718.55 257.265C717.872 258.801 717.51 260.451 717.465 262.213V262.552C717.465 262.958 717.33 263.297 717.058 263.568Z" fill="black"/>
<g style="mix-blend-mode:multiply">
<path d="M670.23 2.54883L591.03 107.489V2.54883H670.23Z" fill="#BAEAB3"/>
</g>
<path d="M42.1767 3.79566V233.613C42.1767 234.064 42.0184 234.471 41.702 234.833C41.3404 235.239 40.8883 235.442 40.3458 235.442C39.8034 235.442 39.3739 235.239 39.0575 234.833C38.7862 234.471 38.6506 234.064 38.6506 233.613V3.79566H1.89857C1.49173 3.79566 1.10748 3.61493 0.745835 3.25348C0.384191 2.89203 0.203369 2.4628 0.203369 1.9658C0.203369 1.55916 0.384191 1.17512 0.745835 0.813665C1.10748 0.452211 1.49173 0.271484 1.89857 0.271484H78.7931C79.3356 0.271484 79.765 0.452211 80.0814 0.813665C80.3527 1.17512 80.4883 1.60435 80.4883 2.10135C80.4883 3.23089 79.9232 3.79566 78.7931 3.79566H42.1767Z" fill="black"/>
<path fill-rule="evenodd" clip-rule="evenodd" d="M126.869 0.271484C132.068 0.271484 136.927 1.24289 141.448 3.18571C145.923 5.12852 149.811 7.77165 153.111 11.1151C156.411 14.4586 158.988 18.3668 160.841 22.8398C162.74 27.3128 163.689 32.102 163.689 37.2076C163.689 42.2227 162.74 46.9668 160.841 51.4398C158.942 55.8676 156.343 59.7307 153.043 63.0289C149.743 66.3272 145.855 68.9251 141.38 70.8228C136.86 72.6752 132 73.6015 126.801 73.6015H98.2541V179.191C98.2541 179.643 98.0732 180.05 97.7116 180.411C97.35 180.773 96.9431 180.953 96.491 180.953C95.9034 180.953 95.4513 180.773 95.1349 180.411C94.8636 180.05 94.728 179.643 94.728 179.191V1.9658C94.728 1.42362 94.8862 1.01698 95.2027 0.745893C95.5643 0.429621 95.9938 0.271484 96.491 0.271484H126.869ZM98.2541 3.79566V70.0773H126.801C131.91 70.0773 136.52 69.1736 140.634 67.3664C144.748 65.5139 148.251 63.0741 151.144 60.0469C154.083 56.9746 156.321 53.473 157.857 49.5422C159.44 45.5662 160.231 41.4546 160.231 37.2076C160.231 33.0508 159.44 28.9619 157.857 24.9407C156.23 20.9195 153.992 17.3502 151.144 14.2326C148.251 11.1151 144.77 8.60752 140.702 6.70988C136.634 4.76707 132.113 3.79566 127.14 3.79566H98.2541Z" fill="black"/>
<path d="M181.997 105.522C181.364 105.477 180.912 105.251 180.641 104.845C180.37 104.438 180.234 103.964 180.234 103.421V1.9658C180.234 1.37844 180.46 0.949211 180.912 0.67812C181.364 0.40703 181.839 0.271484 182.336 0.271484H248.924C249.376 0.271484 249.783 0.429621 250.145 0.745893C250.506 1.01698 250.687 1.42362 250.687 1.9658C250.687 2.4628 250.506 2.89203 250.145 3.25348C249.783 3.61493 249.376 3.79566 248.924 3.79566H183.76V50.0844H232.447C232.989 50.0844 233.396 50.2651 233.667 50.6265C233.984 50.988 234.142 51.4172 234.142 51.9142C234.142 52.366 233.984 52.7727 233.667 53.1341C233.396 53.4504 232.989 53.6085 232.447 53.6085H183.76V101.998H248.924C249.376 101.998 249.783 102.156 250.145 102.473C250.506 102.834 250.687 103.218 250.687 103.625C250.687 104.167 250.506 104.619 250.145 104.98C249.783 105.342 249.376 105.522 248.924 105.522H181.997Z" fill="black"/>
<path d="M271.233 51.372H346.161V1.9658C346.161 1.55916 346.342 1.17512 346.703 0.813665C347.065 0.452211 347.495 0.271484 347.992 0.271484C348.444 0.271484 348.851 0.452211 349.212 0.813665C349.574 1.17512 349.755 1.55916 349.755 1.9658V103.828C349.755 104.235 349.574 104.619 349.212 104.98C348.851 105.342 348.444 105.522 347.992 105.522C347.495 105.522 347.065 105.342 346.703 104.98C346.342 104.619 346.161 104.235 346.161 103.828V54.7607H271.233V103.828C271.233 104.235 271.052 104.619 270.69 104.98C270.329 105.342 269.922 105.522 269.47 105.522C268.973 105.522 268.566 105.342 268.249 104.98C267.888 104.619 267.707 104.235 267.707 103.828V1.9658C267.707 1.55916 267.888 1.17512 268.249 0.813665C268.566 0.452211 268.973 0.271484 269.47 0.271484C269.922 0.271484 270.329 0.452211 270.69 0.813665C271.052 1.17512 271.233 1.55916 271.233 1.9658V51.372Z" fill="black"/>
<path d="M452.077 7.11652L377.963 104.777C377.827 104.958 377.601 105.161 377.285 105.387C377.195 105.477 377.059 105.522 376.878 105.522H376.607C376.155 105.522 375.748 105.364 375.386 105.048C375.025 104.732 374.844 104.325 374.844 103.828V2.10135C374.844 1.64953 374.979 1.2203 375.251 0.813665C375.567 0.452211 376.019 0.271484 376.607 0.271484C377.195 0.271484 377.624 0.452211 377.895 0.813665C378.212 1.2203 378.37 1.64953 378.37 2.10135V98.474L452.349 1.08476L452.688 0.745893C453.004 0.429621 453.411 0.271484 453.908 0.271484C453.999 0.271484 454.089 0.294075 454.179 0.339257C454.225 0.339257 454.292 0.339257 454.383 0.339257L454.722 0.542575L455.129 0.813665C455.445 1.26548 455.603 1.69471 455.603 2.10135V103.828C455.603 104.235 455.445 104.619 455.129 104.98C454.767 105.342 454.36 105.522 453.908 105.522C453.411 105.522 452.982 105.342 452.62 104.98C452.258 104.619 452.077 104.235 452.077 103.828V7.11652Z" fill="black"/>
<path d="M484.761 51.372H559.757V1.9658C559.757 1.55916 559.938 1.17512 560.299 0.813665C560.661 0.452211 561.09 0.271484 561.588 0.271484C561.995 0.271484 562.379 0.452211 562.74 0.813665C563.102 1.17512 563.283 1.55916 563.283 1.9658V103.828C563.283 104.235 563.102 104.619 562.74 104.98C562.379 105.342 561.995 105.522 561.588 105.522C561.09 105.522 560.661 105.342 560.299 104.98C559.938 104.619 559.757 104.235 559.757 103.828V54.7607H484.761V103.828C484.761 104.235 484.58 104.619 484.218 104.98C483.857 105.342 483.473 105.522 483.066 105.522C482.568 105.522 482.139 105.342 481.777 104.98C481.416 104.619 481.235 104.235 481.235 103.828V1.9658C481.235 1.55916 481.416 1.17512 481.777 0.813665C482.139 0.452211 482.568 0.271484 483.066 0.271484C483.473 0.271484 483.857 0.452211 484.218 0.813665C484.58 1.17512 484.761 1.55916 484.761 1.9658V51.372Z" fill="black"/>
<g style="mix-blend-mode:multiply">
<path d="M528.66 381.13H447.48V272.23H528.66V381.13Z" fill="#FFE3B7"/>
</g>
<path d="M449.159 325.073H526.981V273.954C526.981 273.533 527.169 273.136 527.544 272.762C527.919 272.388 528.365 272.201 528.881 272.201C529.303 272.201 529.702 272.388 530.077 272.762C530.452 273.136 530.64 273.533 530.64 273.954V379.348C530.64 379.769 530.452 380.166 530.077 380.54C529.702 380.914 529.303 381.101 528.881 381.101C528.365 381.101 527.919 380.914 527.544 380.54C527.169 380.166 526.981 379.769 526.981 379.348V328.58H449.159V379.348C449.159 379.769 448.971 380.166 448.596 380.54C448.221 380.914 447.822 381.101 447.4 381.101C446.884 381.101 446.438 380.914 446.063 380.54C445.688 380.166 445.5 379.769 445.5 379.348V273.954C445.5 273.533 445.688 273.136 446.063 272.762C446.438 272.388 446.884 272.201 447.4 272.201C447.822 272.201 448.221 272.388 448.596 272.762C448.971 273.136 449.159 273.533 449.159 273.954V325.073Z" fill="black"/>
<path d="M668.635 0.277344C669.787 0.277344 670.398 1.10591 670.398 2.07258C670.398 3.03925 669.584 3.86782 668.635 3.86782H591.903V105.713C591.903 106.311 591.722 106.772 591.36 107.094C591.044 107.37 590.66 107.508 590.208 107.508C589.71 107.508 589.281 107.37 588.919 107.094C588.558 106.772 588.377 106.311 588.377 105.713V2.14163C588.377 1.63528 588.558 1.19798 588.919 0.829724C589.281 0.461471 589.71 0.277344 590.208 0.277344H668.635Z" fill="black"/>
<path d="M767.914 0.271484C769.067 0.271484 770.016 1.2203 770.016 2.37244V231.376C770.016 232.325 769.203 233.138 768.253 233.138C767.236 233.138 766.49 232.325 766.49 231.376V9.6241L693.19 186.985C692.851 187.731 692.105 188.273 691.291 188.273C690.138 188.273 689.189 187.324 689.189 186.24V2.03357C689.189 1.08476 690.003 0.271484 690.952 0.271484C691.969 0.271484 692.715 1.08476 692.715 2.03357V178.785L765.948 1.55916C766.287 0.745893 767.033 0.271484 767.914 0.271484Z" fill="black"/>
</svg>
